<svg width="96" height="84" viewBox="0 0 96 84" fill="none" xmlns="http://www.w3.org/2000/svg"><path d="M74.129 8.199c12.079 0 21.87 9.8 21.871 21.888v24.248l-.002.302a21.84 21.84 0 0 1-6.385 15.156V82h-2.516c-.978 0-2.01-.281-2.93-.616-.965-.351-2.01-.84-3.075-1.409-1.878-1.005-3.93-2.327-5.868-3.78q-.412.022-.829.027l-.266.002H60a21.77 21.77 0 0 1-13.52-4.685 18.6 18.6 0 0 0 3.746-3.482A16.75 16.75 0 0 0 60 71.187h14.129l.205-.001q.716-.009 1.42-.076l.996-.096.79.615c1.96 1.53 4.075 2.915 5.924 3.905q.59.314 1.117.563v-8.5l.83-.75a17 17 0 0 0 3.486-4.411H66v-5.23h24.725q.222-1.29.242-2.638v-4.142h-19.16v-5.23h19.16v-6.78H77.034v-5.23h13.935v-3.099c0-9.307-7.54-16.852-16.84-16.852H60q-.169 0-.338.004a23 23 0 0 0-2.138-4.9q1.22-.139 2.476-.14z" fill="#141A1F"/><path d="M36.58 2c9.692 0 17.784 6.856 19.7 15.986 2.809 9.435 6.026 26.254 6.042 26.338h-9.87v5.23h-9.29c0 3.197 3.214 7.585 7.452 7.585 0 3.486-4.898 12.463-15.582 12.464H20.13C9.012 69.603 0 60.583 0 49.458V22.146C0 11.02 9.012 2 20.129 2zm6.387 22.47a3.87 3.87 0 0 0-3.87 3.874 3.87 3.87 0 0 0 3.87 3.874 3.873 3.873 0 0 0 3.87-3.874 3.873 3.873 0 0 0-3.87-3.874" fill="#4A69E8"/></svg>