<svg width="40" height="36" viewBox="0 0 40 36" fill="none" xmlns="http://www.w3.org/2000/svg"><path d="M30.888 2.603C35.92 2.603 40 6.719 40 11.796v10.185l-.001.126a9.2 9.2 0 0 1-2.66 6.366V33.6H36.29c-.407 0-.838-.118-1.22-.259a10 10 0 0 1-1.282-.592 20 20 0 0 1-2.445-1.586 9 9 0 0 1-.345.01H25a9.02 9.02 0 0 1-5.634-1.97 7.8 7.8 0 0 0 1.56-1.46A6.94 6.94 0 0 0 25 29.058h5.973q.297-.003.59-.032l.416-.04.329.259a18 18 0 0 0 2.468 1.64q.246.13.466.236v-3.57l.346-.316a7.1 7.1 0 0 0 1.451-1.852H27.5v-2.196h10.3q.094-.542.102-1.11l.001-.096v-1.643H29.92v-2.196h7.984v-2.847h-5.807V13.1h5.807v-1.303c0-3.909-3.141-7.078-7.016-7.078H25l-.142.003a9.8 9.8 0 0 0-.892-2.057A9 9 0 0 1 25 2.603z" fill="#FCFCFD"/><path d="M15.242 0c4.039 0 7.41 2.88 8.208 6.715 1.171 3.965 2.512 11.034 2.518 11.061h-4.113v2.197h-3.87c0 1.342 1.339 3.185 3.105 3.185 0 1.465-2.042 5.236-6.493 5.236h-6.21C3.755 28.394 0 24.605 0 19.933V8.46C0 3.788 3.755 0 8.387 0zm2.661 9.437a1.62 1.62 0 0 0-1.613 1.627 1.62 1.62 0 0 0 1.613 1.627c.891 0 1.614-.729 1.614-1.628a1.62 1.62 0 0 0-1.614-1.626" fill="#FCFCFD"/></svg>