<svg width="120" height="64" viewBox="0 0 120 64" fill="none" xmlns="http://www.w3.org/2000/svg"><mask id="a" fill="#fff"><path d="M108 .201c6.627 0 12 5.373 12 12v26c0 6.628-5.373 12-12 12H73.598L60 63.8 46.402 50.2H12c-6.627 0-12-5.372-12-12v-26C0 5.573 5.373.2 12 .2z"/></mask><path d="M108 .201c6.627 0 12 5.373 12 12v26c0 6.628-5.373 12-12 12H73.598L60 63.8 46.402 50.2H12c-6.627 0-12-5.372-12-12v-26C0 5.573 5.373.2 12 .2z" fill="#FCFCFD"/><path d="M108 .201v-2zm12 38h2zm-12 12v2zm-34.402 0v-2h-.829l-.586.586zM60 63.8l-1.414 1.414L60 66.627l1.414-1.414zM46.402 50.2l1.415-1.414-.586-.586h-.829zM12 50.2v2zm-12-38h-2zm12-12v-2zm96 0v2c5.523 0 10 4.477 10 10h4c0-7.732-6.268-14-14-14zm12 12h-2v26h4v-26zm0 26h-2c0 5.523-4.477 10-10 10v4c7.732 0 14-6.268 14-14zm-12 12v-2H73.598v4H108zm-34.402 0-1.415-1.414-13.597 13.598L60 63.799l1.414 1.414 13.598-13.598zM60 63.8l1.414-1.414-13.597-13.598-1.415 1.414-1.414 1.414 13.598 13.598zM46.402 50.2v-2H12v4h34.402zM12 50.2v-2c-5.523 0-10-4.477-10-10h-4c0 7.732 6.268 14 14 14zm-12-12h2v-26h-4v26zm0-26h2c0-5.523 4.477-10 10-10v-4c-7.732 0-14 6.268-14 14zm12-12v2h96v-4H12z" fill="#4A69E8" mask="url(#a)"/><path d="m31.442 37.64-4.98-19.76h1.94l4.98 19.76zm15.245-5.78c2.2 0 3.6-2 3.6-5.32 0-3.18-1.4-5.08-3.6-5.08s-3.6 1.9-3.6 5.08c0 3.32 1.4 5.32 3.6 5.32m4.78 6.16c-3.02 0-5.12-1.62-6.14-3.86-3.16-.6-5.26-3.4-5.26-7.62 0-4.82 2.7-7.62 6.62-7.62s6.62 2.82 6.62 7.62c0 4.04-1.92 6.76-4.86 7.52.68 1.12 2.02 1.58 3.36 1.58.64 0 1.2-.1 1.62-.24l.54 2.18c-.52.24-1.42.44-2.5.44m8.19-15.34c0 .62.2 1.28.54 1.98 1.16-.7 2.06-1.42 2.06-2.5 0-.74-.34-1.28-1.1-1.28-.88 0-1.5.7-1.5 1.8m.56 11.6c-3.1 0-4.84-1.9-4.84-4.2 0-2.06 1.3-3.26 2.78-4.2-.6-1.12-.94-2.22-.94-3.2 0-2.06 1.52-3.76 3.88-3.76 2.12 0 3.44 1.28 3.44 3.22 0 1.96-1.6 3.18-3.18 4.28.88 1.1 2.02 2.18 3.2 3.08.78-1.04 1.42-2.3 1.82-3.76h2.66c-.54 1.84-1.34 3.54-2.5 5.08.96.54 1.86.92 2.64 1.06l-.72 2.4c-1.18-.26-2.46-.78-3.7-1.56-1.22.96-2.72 1.56-4.54 1.56m-2.04-4.38c0 1.26.98 2.12 2.4 2.12.74 0 1.46-.28 2.16-.74a21 21 0 0 1-3.34-3.46c-.72.62-1.22 1.28-1.22 2.08m16.825-3.62-.44 1.62h3.52l-.44-1.62c-.46-1.54-.86-3.24-1.28-4.84h-.1c-.38 1.62-.82 3.3-1.26 4.84M69.883 34l4.74-14.82h3.48L82.863 34h-3.1l-1.04-3.8h-4.8l-1.04 3.8zm18.504 3.64 4.98-19.76h1.94l-4.96 19.76z" fill="#4A69E8"/></svg>