<svg width="120" height="64" viewBox="0 0 120 64" fill="none" xmlns="http://www.w3.org/2000/svg"><mask id="a" fill="#fff"><path d="M108 .201c6.627 0 12 5.373 12 12v26c0 6.628-5.373 12-12 12H73.598L60 63.8 46.402 50.2H12c-6.627 0-12-5.372-12-12v-26C0 5.573 5.373.2 12 .2z"/></mask><path d="M108 .201c6.627 0 12 5.373 12 12v26c0 6.628-5.373 12-12 12H73.598L60 63.8 46.402 50.2H12c-6.627 0-12-5.372-12-12v-26C0 5.573 5.373.2 12 .2z" fill="#FCFCFD"/><path d="M108 .201v-2zm12 38h2zm-12 12v2zm-34.402 0v-2h-.829l-.586.586zM60 63.8l-1.414 1.414L60 66.627l1.414-1.414zM46.402 50.2l1.415-1.414-.586-.586h-.829zM12 50.2v2zm-12-38h-2zm12-12v-2zm96 0v2c5.523 0 10 4.477 10 10h4c0-7.732-6.268-14-14-14zm12 12h-2v26h4v-26zm0 26h-2c0 5.523-4.477 10-10 10v4c7.732 0 14-6.268 14-14zm-12 12v-2H73.598v4H108zm-34.402 0-1.415-1.414-13.597 13.598L60 63.799l1.414 1.414 13.598-13.598zM60 63.8l1.414-1.414-13.597-13.598-1.415 1.414-1.414 1.414 13.598 13.598zM46.402 50.2v-2H12v4h34.402zM12 50.2v-2c-5.523 0-10-4.477-10-10h-4c0 7.732 6.268 14 14 14zm-12-12h2v-26h-4v26zm0-26h2c0-5.523 4.477-10 10-10v-4c-7.732 0-14 6.268-14 14zm12-12v2h96v-4H12z" fill="#4A69E8" mask="url(#a)"/><path d="m26.58 30.86 1.92-.24c.38 1.28.58 2.96.58 4.08l-2.04.24c.06-1.08-.14-2.8-.46-4.08m3-.18 1.82-.42c.46 1.1.92 2.58 1.06 3.52l-1.9.5c-.12-.98-.56-2.48-.98-3.6m4.28-8.24h-3.4c-.26.52-.52 1.02-.82 1.52h3.86c.12-.46.24-.98.36-1.52M35.18 26h-6.84c-.4.54-.8 1.06-1.24 1.56h7.74c.12-.48.24-1 .34-1.56m4.02 1.56-.06.92c-.34 4.04-.7 5.78-1.34 6.44-.48.52-.94.68-1.6.76-.58.08-1.52.08-2.54.04-.04-.66-.3-1.56-.66-2.16.86.08 1.7.1 2.1.08.32 0 .52-.02.72-.22.34-.34.62-1.42.86-3.82H25.02c-.28.22-.56.46-.84.66l1.72.58c-.4 1.72-1 3.58-2.18 4.82l-1.84-1.3c.96-.94 1.6-2.4 1.96-3.86-.6.44-1.26.84-1.94 1.22-.28-.6-.86-1.54-1.28-2.08 3.2-1.62 5.56-4.22 7.18-7.2h-6.24V20.3h3.9c-.38-.72-1.06-1.68-1.68-2.4l2.14-.84c.72.76 1.56 1.86 1.96 2.6l-1.56.64h2.5c.46-1.06.82-2.16 1.1-3.24l2.44.56c-.28.9-.6 1.8-.94 2.68h5.04c-.24 1.18-.54 2.56-.8 3.66h2.08c-.22 1.18-.48 2.52-.76 3.6zm-3.7 4.82-1.74.62c-.18-.7-.68-1.86-1.18-2.7l1.64-.56c.54.82 1.08 1.9 1.28 2.64m10.32-15.26 2.26.72c-.5 1.26-1.06 2.58-1.74 3.82V35.7H44V25.38c-.5.66-1 1.28-1.5 1.8-.22-.58-.88-1.88-1.28-2.46 1.84-1.84 3.6-4.7 4.6-7.6m14.04 6.54V26h-4.92v9.74h-2.48V26h-5.14v-2.34h5.14v-6.3h2.48v6.3zm19.36 3.12h.28c.2 0 .58-.02.78-.08.02.3.04.68.08 1-.18.06-.52.08-.82.08h-.7c-1.04 0-1.22-.46-1.22-1.46v-2h1.34v2.02c0 .32.02.44.26.44m-2.12 1.16h-1.78v-4.22h-2.4v-1.78h2.4v-.92h1.78v.92h2.84v1.78H77.1zm2.98-7.34H65.4v3.44c0 3.26-.28 8.4-1.76 11.64-.4-.42-1.42-1.18-1.9-1.4 1.3-2.98 1.4-7.26 1.4-10.24v-5.5h7.5c-.1-.42-.22-.86-.32-1.2l2.4-.44c.2.5.4 1.12.54 1.64h6.82zm-10.1 7.3H68.2v-4.18h-2.18v-1.78h2.18v-.92h1.78v.92h2.42v1.78h-2.42zm-2.32-3.56v.84c0 1.02-.14 2.24-1.04 3.1-.24-.28-.8-.74-1.14-.92.76-.56.88-1.56.88-2.24v-.78zm7.42 7.14 1.7-.8c1.04 1.16 2.5 2.86 3.24 3.88l-1.82.98c-.2-.3-.46-.68-.76-1.06-9.4.68-10.52.7-11.24.94-.08-.38-.36-1.36-.56-1.9.68-.1 1.36-.38 2.38-.88.44-.18 1.28-.58 2.26-1.14-2.58.16-3.06.26-3.38.38-.08-.36-.34-1.26-.54-1.76.4-.04.82-.22 1.3-.5.52-.24 2.14-1.16 3.36-2.24-.44-.18-.54-.58-.54-1.28v-1.68h1.26v1.7c0 .3.02.4.22.4.16 0 .46 0 .64-.06.02.2.02.4.04.62.68-.56.8-1.4.8-2.02v-.76h1.3v.82c0 .96-.14 2.12-1.06 2.94-.22-.28-.7-.66-1.04-.86l.02.2c-.16.06-.44.08-.7.08h-.38l1.22.78c-.96.72-2.08 1.42-3.16 1.98l2.98-.14c.92-.58 1.84-1.2 2.66-1.88l1.76 1.18c-2.06 1.5-4.28 2.78-6.42 3.82l5.58-.4c-.38-.46-.78-.92-1.12-1.34m14.88-2.62c-.42-3.14 3.82-3.86 3.82-5.8 0-1.2-.96-1.88-2.52-1.88-1.24 0-2.22.54-3.2 1.58l-1.64-1.52c1.26-1.48 3.02-2.44 5.16-2.44 2.9 0 5.02 1.34 5.02 4 0 2.94-4.36 3.28-4.06 6.06zm1.3 5.32c-1.02 0-1.76-.72-1.76-1.76 0-1.06.76-1.78 1.76-1.78 1.02 0 1.76.72 1.76 1.78 0 1.04-.74 1.76-1.76 1.76" fill="#4A69E8"/></svg>